<svg height="512pt" viewBox="-61 0 512 512" width="512pt" xmlns="http://www.w3.org/2000/svg">
  <path d="m268.480469 165h-28.988281c-.945313 18.164062-3.695313 35.523438-8.273438 50.261719 18.808594-10.484375 32.835938-28.53125 37.261719-50.261719zm0 0"/>
  <path d="m268.480469 135c-4.425781-21.730469-18.453125-39.777344-37.261719-50.261719 4.578125 14.738281 7.328125 32.097657 8.273438 50.261719zm0 0"/>
  <path d="m209.164062 165h-28.328124c1.984374 32.089844 9.355468 52.535156 14.164062 58.636719 4.808594-6.101563 12.179688-26.546875 14.164062-58.636719zm0 0"/>
  <path d="m158.78125 215.261719c-4.578125-14.738281-7.328125-32.097657-8.273438-50.261719h-28.988281c4.425781 21.730469 18.453125 39.777344 37.261719 50.261719zm0 0"/>
  <path d="m195 76.363281c-4.808594 6.101563-12.179688 26.546875-14.164062 58.636719h28.328124c-1.984374-32.089844-9.355468-52.535156-14.164062-58.636719zm0 0"/>
  <path d="m158.78125 84.738281c-18.808594 10.484375-32.835938 28.53125-37.261719 50.261719h28.988281c.945313-18.164062 3.695313-35.523438 8.273438-50.261719zm0 0"/>
  <path d="m0 45v385.34375c8.859375-5.167969 19.023438-8.34375 30-8.34375h360v-422h-345c-24.8125 0-45 20.1875-45 45zm195 0c57.890625 0 105 47.109375 105 105s-47.109375 105-105 105-105-47.109375-105-105 47.109375-105 105-105zm-135 242h270v30h-270zm0 60h270v30h-270zm0 0"/>
  <path d="m30 512h360v-30h-30c-8.285156 0-15-6.714844-15-15s6.714844-15 15-15h-330c-16.570312 0-30 13.429688-30 30 0 16.566406 13.429688 30 30 30zm0 0"/>
</svg>